<svg width="160" height="64" viewBox="0 0 160 64" fill="none" xmlns="http://www.w3.org/2000/svg">
<rect x="13.333" y="30.6665" width="64" height="6.66667" fill="#59F881"/>
<path d="M0.540254 17.1229L7.16102 17.1123C7.20339 17.536 7.38701 17.8432 7.71186 18.0339C8.04379 18.2175 8.57698 18.3093 9.31144 18.3093C9.92585 18.3093 10.3884 18.2422 10.6992 18.1081C11.0169 17.9668 11.1758 17.7585 11.1758 17.4831C11.1758 17.0028 10.3531 16.6886 8.70763 16.5403C8.38277 16.5049 8.13559 16.4802 7.9661 16.4661C7.95198 16.4661 7.93785 16.4661 7.92373 16.4661C5.26836 16.2048 3.47458 15.8658 2.54237 15.4492C1.99859 15.209 1.57839 14.8312 1.28178 14.3157C0.992232 13.8001 0.847458 13.1928 0.847458 12.4936C0.847458 11.0883 1.49011 10.0607 2.77542 9.41102C4.06073 8.7613 6.10876 8.43644 8.91949 8.43644C11.5749 8.43644 13.5487 8.76836 14.8411 9.4322C16.1405 10.096 16.8326 11.1236 16.9174 12.5148H10.678C10.6427 12.1052 10.452 11.8086 10.1059 11.625C9.76695 11.4414 9.21963 11.3496 8.46398 11.3496C7.82133 11.3496 7.34816 11.4202 7.04449 11.5614C6.74788 11.6956 6.59958 11.9075 6.59958 12.197C6.59958 12.6631 7.30579 12.9527 8.71822 13.0657C9.01483 13.0939 9.24082 13.1151 9.39619 13.1292C9.50918 13.1363 9.68573 13.1504 9.92585 13.1716C12.7719 13.4258 14.4315 13.6342 14.9047 13.7966C15.8369 14.1285 16.4936 14.5381 16.875 15.0254C17.2564 15.5056 17.447 16.166 17.447 17.0064C17.447 18.56 16.762 19.6829 15.3919 20.375C14.029 21.0671 11.7903 21.4131 8.67585 21.4131C5.90749 21.4131 3.87359 21.0706 2.57415 20.3856C1.28178 19.6935 0.603814 18.6059 0.540254 17.1229ZM30.6462 15.3432C30.0812 15.6257 29.1137 15.8129 27.7436 15.9047C27.3482 15.9258 27.0445 15.947 26.8326 15.9682C26.0346 16.0388 25.4908 16.1554 25.2013 16.3178C24.9188 16.4802 24.7775 16.7309 24.7775 17.0699C24.7775 17.4513 24.947 17.7479 25.286 17.9597C25.6321 18.1645 26.1194 18.2669 26.7479 18.2669C27.9414 18.2669 28.8948 18.0268 29.6081 17.5466C30.3213 17.0664 30.678 16.4308 30.678 15.6398C30.678 15.5551 30.6744 15.4951 30.6674 15.4597C30.6674 15.4174 30.6603 15.3785 30.6462 15.3432ZM30.6674 19.3369C29.9894 20.0501 29.1702 20.5727 28.2097 20.9047C27.2564 21.2295 26.0452 21.3919 24.5763 21.3919C22.5918 21.3919 21.1017 21.06 20.1059 20.3962C19.1102 19.7323 18.6123 18.7331 18.6123 17.3983C18.6123 16.9605 18.6688 16.5579 18.7818 16.1907C18.8948 15.8164 19.0537 15.4951 19.2585 15.2267C19.6751 14.7112 20.2295 14.3298 20.9216 14.0826C21.6208 13.8284 22.9343 13.6377 24.8623 13.5106C25.4979 13.4682 26.3242 13.4294 27.3411 13.3941C29.3891 13.3093 30.4131 13.0233 30.4131 12.536C30.4131 12.2041 30.1977 11.9393 29.767 11.7415C29.3362 11.5367 28.75 11.4343 28.0085 11.4343C27.048 11.4343 26.363 11.5261 25.9534 11.7097C25.5438 11.8934 25.3037 12.2076 25.2331 12.6525H19.6292C19.7422 11.1766 20.4308 10.1208 21.6949 9.48517C22.9661 8.84251 25.0565 8.52119 27.9661 8.52119C29.5551 8.52119 30.8934 8.63418 31.9809 8.86017C33.0685 9.0791 33.8912 9.40749 34.4492 9.84534C35.0565 10.3185 35.4873 10.8905 35.7415 11.5614C35.9958 12.2253 36.1229 13.1787 36.1229 14.4216V19.1144C36.1229 19.5664 36.1617 19.916 36.2394 20.1631C36.3242 20.4032 36.4654 20.5939 36.6631 20.7352V21H31.017C30.9181 20.7599 30.8369 20.5021 30.7733 20.2267C30.7168 19.9442 30.6815 19.6476 30.6674 19.3369ZM39.1525 21V8.84958H44.6822V21H39.1525ZM39.1525 7.85381V4.77119H44.6822V7.85381H39.1525ZM47.7225 21V8.84958H53.1462V10.1102C53.8736 9.60169 54.6292 9.2274 55.4131 8.98729C56.197 8.74011 57.041 8.61653 57.9449 8.61653C59.7246 8.61653 61.024 9.0685 61.8432 9.97246C62.6695 10.8764 63.0826 12.31 63.0826 14.2733V21H57.6589V15.2903C57.6589 14.3863 57.5141 13.7648 57.2246 13.4258C56.935 13.0798 56.4301 12.9068 55.7097 12.9068C54.9117 12.9068 54.2832 13.0975 53.8242 13.4788C53.3722 13.8602 53.1462 14.3863 53.1462 15.0572V21H47.7225ZM74.0996 20.9788C73.6264 21.0565 73.1674 21.113 72.7225 21.1483C72.2775 21.1907 71.8468 21.2119 71.4301 21.2119C70.7592 21.2119 70.1554 21.1695 69.6186 21.0847C69.0819 21.0071 68.6017 20.8835 68.178 20.714C67.5777 20.4668 67.154 20.1066 66.9068 19.6335C66.6596 19.1603 66.536 18.387 66.536 17.3136V12.5572H64.5975V9.15678H66.536V5.18432H72.0021V9.15678H73.9513V12.5572H72.0021V15.0784C72.0021 16.279 72.0904 17.0064 72.267 17.2606C72.4435 17.5148 72.7966 17.6419 73.3263 17.6419H74.0996V20.9788ZM92.5848 15.661C92.387 17.5749 91.5607 19.012 90.1059 19.9725C88.6582 20.9329 86.5925 21.4131 83.9089 21.4131C81.1335 21.4131 78.9866 20.8482 77.4682 19.7182C75.9569 18.5883 75.2013 16.9922 75.2013 14.9301C75.2013 12.875 75.9569 11.279 77.4682 10.1419C78.9866 9.00494 81.1335 8.43644 83.9089 8.43644C86.4866 8.43644 88.4958 8.87782 89.9364 9.76059C91.3771 10.6434 92.2246 11.9534 92.4788 13.6907H86.6631C86.4442 13.1328 86.1158 12.7161 85.678 12.4407C85.2401 12.1582 84.6928 12.0169 84.036 12.0169C83.0685 12.0169 82.3093 12.2747 81.7585 12.7903C81.2076 13.2987 80.9322 14.0049 80.9322 14.9089C80.9322 15.7846 81.2006 16.4802 81.7373 16.9958C82.274 17.5113 82.9979 17.7691 83.9089 17.7691C84.6646 17.7691 85.3001 17.5819 85.8157 17.2076C86.3383 16.8263 86.6631 16.3107 86.7903 15.661H92.5848ZM99.661 14.9301C99.661 15.7634 99.9117 16.4273 100.413 16.9216C100.922 17.416 101.603 17.6631 102.458 17.6631C103.312 17.6631 103.99 17.416 104.492 16.9216C105 16.4273 105.254 15.7634 105.254 14.9301C105.254 14.0897 105 13.4258 104.492 12.9386C103.99 12.4442 103.312 12.197 102.458 12.197C101.603 12.197 100.922 12.4442 100.413 12.9386C99.9117 13.4258 99.661 14.0897 99.661 14.9301ZM93.9301 14.9301C93.9301 12.8679 94.6751 11.2719 96.1653 10.1419C97.6554 9.00494 99.7599 8.43644 102.479 8.43644C105.205 8.43644 107.306 9.00141 108.782 10.1314C110.265 11.2613 111.006 12.8609 111.006 14.9301C111.006 16.9922 110.265 18.5883 108.782 19.7182C107.306 20.8482 105.205 21.4131 102.479 21.4131C99.7599 21.4131 97.6554 20.8482 96.1653 19.7182C94.6751 18.5883 93.9301 16.9922 93.9301 14.9301ZM123.602 14.9301C123.602 14.1109 123.347 13.4576 122.839 12.9703C122.338 12.4831 121.667 12.2394 120.826 12.2394C119.986 12.2394 119.311 12.4831 118.803 12.9703C118.302 13.4576 118.051 14.1109 118.051 14.9301C118.051 15.7422 118.302 16.3955 118.803 16.8898C119.311 17.3771 119.986 17.6208 120.826 17.6208C121.667 17.6208 122.338 17.3771 122.839 16.8898C123.347 16.3955 123.602 15.7422 123.602 14.9301ZM129.025 5.20551V21H123.867L123.824 19.803C123.167 20.3044 122.44 20.6822 121.642 20.9364C120.844 21.1836 119.965 21.3072 119.004 21.3072C116.977 21.3072 115.36 20.7281 114.153 19.5699C112.945 18.4047 112.341 16.8581 112.341 14.9301C112.341 12.9739 112.948 11.4202 114.163 10.2691C115.385 9.11794 117.027 8.54237 119.089 8.54237C119.965 8.54237 120.77 8.65184 121.504 8.87076C122.246 9.08263 122.945 9.40749 123.602 9.84534V5.20551H129.025ZM136.695 13.5847H143.136C143.058 12.9138 142.754 12.3948 142.225 12.0275C141.695 11.6603 140.985 11.4767 140.095 11.4767C139.135 11.4767 138.362 11.6568 137.775 12.0169C137.196 12.3771 136.836 12.8997 136.695 13.5847ZM148.602 17.2924C148.192 18.6412 147.242 19.6653 145.752 20.3644C144.262 21.0636 142.278 21.4131 139.799 21.4131C137.045 21.4131 134.915 20.8482 133.411 19.7182C131.907 18.5883 131.155 16.9922 131.155 14.9301C131.155 12.8609 131.907 11.2613 133.411 10.1314C134.915 9.00141 137.045 8.43644 139.799 8.43644C142.722 8.43644 144.936 9.07556 146.441 10.3538C147.952 11.625 148.708 13.4965 148.708 15.9682V16.1801H136.97C136.97 16.8369 137.246 17.3453 137.797 17.7055C138.347 18.0657 139.121 18.2458 140.117 18.2458C140.773 18.2458 141.321 18.1645 141.758 18.0021C142.196 17.8397 142.511 17.6031 142.701 17.2924H148.602Z" fill="white"/>
<path d="M6.89619 52.2636C6.89619 53.0757 7.15042 53.729 7.6589 54.2233C8.16737 54.7106 8.83828 54.9543 9.67161 54.9543C10.5191 54.9543 11.1935 54.7106 11.6949 54.2233C12.2034 53.729 12.4576 53.0757 12.4576 52.2636C12.4576 51.4444 12.2034 50.7911 11.6949 50.3038C11.1935 49.8165 10.5191 49.5729 9.67161 49.5729C8.83828 49.5729 8.16737 49.8165 7.6589 50.3038C7.15042 50.7911 6.89619 51.4444 6.89619 52.2636ZM1.47246 58.3335V42.539H6.89619V47.1788C7.55297 46.741 8.24859 46.4161 8.98305 46.2043C9.72458 45.9853 10.5332 45.8759 11.4089 45.8759C13.471 45.8759 15.1095 46.4514 16.3242 47.6026C17.5459 48.7537 18.1568 50.3074 18.1568 52.2636C18.1568 54.1915 17.553 55.7382 16.3453 56.9034C15.1377 58.0616 13.5205 58.6407 11.4936 58.6407C10.5403 58.6407 9.66455 58.5171 8.86653 58.2699C8.0685 58.0157 7.3411 57.6379 6.68432 57.1365L6.64195 58.3335H1.47246ZM25.2119 52.2636C25.2119 53.0969 25.4626 53.7608 25.964 54.2551C26.4725 54.7495 27.154 54.9966 28.0085 54.9966C28.863 54.9966 29.541 54.7495 30.0424 54.2551C30.5508 53.7608 30.8051 53.0969 30.8051 52.2636C30.8051 51.4232 30.5508 50.7593 30.0424 50.2721C29.541 49.7777 28.863 49.5305 28.0085 49.5305C27.154 49.5305 26.4725 49.7777 25.964 50.2721C25.4626 50.7593 25.2119 51.4232 25.2119 52.2636ZM19.4809 52.2636C19.4809 50.2014 20.226 48.6054 21.7161 47.4754C23.2062 46.3384 25.3107 45.7699 28.0297 45.7699C30.7556 45.7699 32.8566 46.3349 34.3326 47.4649C35.8157 48.5948 36.5572 50.1944 36.5572 52.2636C36.5572 54.3257 35.8157 55.9218 34.3326 57.0517C32.8566 58.1817 30.7556 58.7466 28.0297 58.7466C25.3107 58.7466 23.2062 58.1817 21.7161 57.0517C20.226 55.9218 19.4809 54.3257 19.4809 52.2636ZM43.6017 52.2636C43.6017 53.0969 43.8524 53.7608 44.3538 54.2551C44.8623 54.7495 45.5438 54.9966 46.3983 54.9966C47.2528 54.9966 47.9308 54.7495 48.4322 54.2551C48.9407 53.7608 49.1949 53.0969 49.1949 52.2636C49.1949 51.4232 48.9407 50.7593 48.4322 50.2721C47.9308 49.7777 47.2528 49.5305 46.3983 49.5305C45.5438 49.5305 44.8623 49.7777 44.3538 50.2721C43.8524 50.7593 43.6017 51.4232 43.6017 52.2636ZM37.8708 52.2636C37.8708 50.2014 38.6158 48.6054 40.1059 47.4754C41.596 46.3384 43.7006 45.7699 46.4195 45.7699C49.1455 45.7699 51.2465 46.3349 52.7225 47.4649C54.2055 48.5948 54.947 50.1944 54.947 52.2636C54.947 54.3257 54.2055 55.9218 52.7225 57.0517C51.2465 58.1817 49.1455 58.7466 46.4195 58.7466C43.7006 58.7466 41.596 58.1817 40.1059 57.0517C38.6158 55.9218 37.8708 54.3257 37.8708 52.2636ZM65.2436 58.3123C64.7705 58.39 64.3114 58.4465 63.8665 58.4818C63.4216 58.5242 62.9908 58.5454 62.5742 58.5454C61.9033 58.5454 61.2994 58.503 60.7627 58.4182C60.226 58.3406 59.7458 58.217 59.322 58.0475C58.7218 57.8003 58.298 57.4401 58.0509 56.967C57.8037 56.4938 57.6801 55.7205 57.6801 54.6471V49.8907H55.7415V46.4903H57.6801V42.5178H63.1462V46.4903H65.0953V49.8907H63.1462V52.4119C63.1462 53.6125 63.2345 54.3399 63.411 54.5941C63.5876 54.8483 63.9407 54.9754 64.4703 54.9754H65.2436V58.3123ZM83.7288 52.9945C83.5311 54.9084 82.7048 56.3455 81.25 57.306C79.8023 58.2664 77.7366 58.7466 75.053 58.7466C72.2775 58.7466 70.1307 58.1817 68.6123 57.0517C67.101 55.9218 66.3453 54.3257 66.3453 52.2636C66.3453 50.2085 67.101 48.6125 68.6123 47.4754C70.1307 46.3384 72.2775 45.7699 75.053 45.7699C77.6307 45.7699 79.6398 46.2113 81.0805 47.0941C82.5212 47.9769 83.3686 49.2869 83.6229 51.0242H77.8072C77.5883 50.4663 77.2599 50.0496 76.822 49.7742C76.3842 49.4917 75.8369 49.3504 75.1801 49.3504C74.2126 49.3504 73.4534 49.6082 72.9025 50.1238C72.3517 50.6322 72.0763 51.3384 72.0763 52.2424C72.0763 53.1181 72.3446 53.8137 72.8814 54.3293C73.4181 54.8448 74.142 55.1026 75.053 55.1026C75.8086 55.1026 76.4442 54.9154 76.9598 54.5411C77.4824 54.1598 77.8072 53.6442 77.9343 52.9945H83.7288ZM96.8962 52.6767C96.3312 52.9592 95.3637 53.1463 93.9936 53.2382C93.5982 53.2593 93.2945 53.2805 93.0826 53.3017C92.2846 53.3723 91.7408 53.4889 91.4513 53.6513C91.1688 53.8137 91.0275 54.0644 91.0275 54.4034C91.0275 54.7848 91.197 55.0814 91.536 55.2932C91.8821 55.498 92.3694 55.6004 92.9979 55.6004C94.1914 55.6004 95.1448 55.3603 95.8581 54.8801C96.5713 54.3999 96.928 53.7643 96.928 52.9733C96.928 52.8886 96.9244 52.8286 96.9174 52.7932C96.9174 52.7509 96.9103 52.712 96.8962 52.6767ZM96.9174 56.6704C96.2394 57.3836 95.4202 57.9062 94.4598 58.2382C93.5064 58.563 92.2952 58.7254 90.8263 58.7254C88.8418 58.7254 87.3517 58.3935 86.3559 57.7297C85.3602 57.0658 84.8623 56.0665 84.8623 54.7318C84.8623 54.2939 84.9188 53.8914 85.0318 53.5242C85.1448 53.1499 85.3037 52.8286 85.5085 52.5602C85.9251 52.0447 86.4795 51.6633 87.1716 51.4161C87.8708 51.1619 89.1843 50.9712 91.1123 50.8441C91.7479 50.8017 92.5742 50.7629 93.5911 50.7276C95.6391 50.6428 96.6631 50.3568 96.6631 49.8695C96.6631 49.5376 96.4477 49.2728 96.017 49.075C95.5862 48.8702 95 48.7678 94.2585 48.7678C93.298 48.7678 92.613 48.8596 92.2034 49.0432C91.7938 49.2269 91.5537 49.5411 91.4831 49.986H85.8792C85.9922 48.51 86.6808 47.4543 87.9449 46.8187C89.2161 46.176 91.3065 45.8547 94.2161 45.8547C95.8051 45.8547 97.1434 45.9677 98.2309 46.1937C99.3185 46.4126 100.141 46.741 100.699 47.1788C101.307 47.652 101.737 48.224 101.992 48.8949C102.246 49.5588 102.373 50.5122 102.373 51.7551V56.4479C102.373 56.8999 102.412 57.2495 102.489 57.4966C102.574 57.7367 102.715 57.9274 102.913 58.0687V58.3335H97.267C97.1681 58.0934 97.0869 57.8356 97.0233 57.5602C96.9668 57.2777 96.9315 56.9811 96.9174 56.6704ZM105.201 58.3335V46.1831H110.583V47.4437C111.303 46.9281 112.041 46.5503 112.797 46.3102C113.552 46.0701 114.368 45.95 115.244 45.95C116.225 45.95 117.048 46.1266 117.712 46.4797C118.376 46.8257 118.944 47.3766 119.417 48.1322C120.215 47.3836 121.052 46.8328 121.928 46.4797C122.804 46.1266 123.775 45.95 124.841 45.95C126.557 45.95 127.814 46.402 128.612 47.306C129.41 48.2099 129.809 49.6435 129.809 51.6068V58.3335H124.449V52.6238C124.449 51.7339 124.308 51.116 124.025 50.7699C123.743 50.4168 123.263 50.2403 122.585 50.2403C121.822 50.2403 121.225 50.431 120.794 50.8123C120.364 51.1937 120.148 51.7198 120.148 52.3907V58.3335H114.883V52.6238C114.883 51.7339 114.742 51.116 114.46 50.7699C114.177 50.4168 113.694 50.2403 113.008 50.2403C112.253 50.2403 111.66 50.431 111.229 50.8123C110.798 51.1937 110.583 51.7198 110.583 52.3907V58.3335H105.201ZM138.104 52.2636C138.104 53.0757 138.358 53.729 138.867 54.2233C139.375 54.7106 140.046 54.9543 140.879 54.9543C141.727 54.9543 142.401 54.7106 142.903 54.2233C143.411 53.729 143.665 53.0757 143.665 52.2636C143.665 51.4444 143.411 50.7911 142.903 50.3038C142.401 49.8165 141.727 49.5729 140.879 49.5729C140.046 49.5729 139.375 49.8165 138.867 50.3038C138.358 50.7911 138.104 51.4444 138.104 52.2636ZM132.68 62.2636V46.1831H137.85L137.892 47.3589C138.535 46.8646 139.255 46.4938 140.053 46.2466C140.851 45.9995 141.734 45.8759 142.701 45.8759C144.728 45.8759 146.345 46.4585 147.553 47.6238C148.761 48.7819 149.364 50.3286 149.364 52.2636C149.364 54.2127 148.754 55.7629 147.532 56.914C146.317 58.0651 144.679 58.6407 142.617 58.6407C141.741 58.6407 140.932 58.5348 140.191 58.3229C139.456 58.104 138.761 57.7756 138.104 57.3377V62.2636H132.68Z" fill="white"/>
</svg>
