<svg width="60" height="60" viewBox="0 0 60 60" fill="none" xmlns="http://www.w3.org/2000/svg">
<g clip-path="url(#clip0_982_167)">
<path d="M11.4329 5.71666C11.4309 6.84491 11.0945 7.94726 10.4663 8.88441C9.83801 9.82155 8.94609 10.5514 7.90316 10.9818C6.86023 11.4122 5.7131 11.5238 4.60677 11.3025C3.50044 11.0812 2.48453 10.5369 1.68744 9.7384C0.89034 8.93991 0.347839 7.92306 0.128452 6.81634C-0.090934 5.70962 0.0226829 4.56271 0.4549 3.52053C0.887117 2.47835 1.61857 1.58768 2.55681 0.96106C3.49505 0.334442 4.59798 1.72419e-06 5.72623 0C6.47648 -1.14652e-06 7.21934 0.147944 7.91235 0.435355C8.60537 0.722766 9.23492 1.144 9.76496 1.67497C10.295 2.20594 10.7151 2.83622 11.0013 3.52974C11.2875 4.22326 11.4342 4.96641 11.4329 5.71666Z" fill="#F8F8F8"/>
<path d="M60.0003 54.2931C60.0003 55.4218 59.6656 56.5251 59.0385 57.4636C58.4115 58.402 57.5202 59.1335 56.4774 59.5654C55.4347 59.9973 54.2872 60.1103 53.1803 59.8901C52.0733 59.67 51.0565 59.1265 50.2584 58.3284C49.4603 57.5303 48.9168 56.5134 48.6966 55.4064C48.4764 54.2994 48.5894 53.152 49.0213 52.1093C49.4532 51.0665 50.1847 50.1752 51.1232 49.5482C52.0616 48.9211 53.1649 48.5864 54.2936 48.5864C55.8071 48.5864 57.2586 49.1877 58.3288 50.2579C59.399 51.3281 60.0003 52.7796 60.0003 54.2931Z" fill="#F8F8F8"/>
<path d="M33.8412 1.4866C33.0914 0.806134 32.174 0.33743 31.1832 0.128576C30.1924 -0.0802771 29.1639 -0.0217595 28.2032 0.298133C27.2425 0.618026 26.3843 1.18777 25.7165 1.9489C25.0487 2.71003 24.5954 3.63512 24.4032 4.62926C23.3961 9.44509 20.9627 13.8462 17.4195 17.2598L17.2399 17.4494C13.8222 20.9871 9.4228 23.4196 4.60935 24.4331C3.46474 24.6571 2.4185 25.2325 1.61633 26.0792C0.611971 27.1703 0.0718432 28.6096 0.110322 30.0921C0.1488 31.5746 0.762904 32.9839 1.82251 34.0215C2.88212 35.059 4.30403 35.6434 5.78702 35.6507C7.27 35.658 8.69758 35.0877 9.76735 34.0606C10.5116 33.3213 11.0336 32.388 11.2738 31.3669C12.3513 26.5462 14.7446 22.1187 18.1877 18.5767L18.5668 18.1976C22.1134 14.7407 26.5526 12.3398 31.3869 11.2638C32.3966 11.0219 33.3213 10.5092 34.0612 9.78075C34.8011 9.05232 35.3283 8.13582 35.5859 7.12997C35.8435 6.12412 35.8218 5.06704 35.5232 4.07261C35.2245 3.07817 34.6602 2.18407 33.8911 1.4866H33.8412Z" fill="#738ADA"/>
<path d="M58.1347 1.48651C57.385 0.803434 56.4669 0.332485 55.4748 0.122139C54.4826 -0.0882074 53.4523 -0.0303589 52.49 0.289747C51.5276 0.609853 50.668 1.18065 49.9995 1.94336C49.331 2.70607 48.8779 3.63315 48.6868 4.62917C47.6797 9.44501 45.2462 13.8461 41.7031 17.2597L41.4237 17.549C37.8796 20.9872 33.4526 23.3768 28.6335 24.4529C27.6094 24.6988 26.6736 25.2237 25.9299 25.9694C25.1856 26.7087 24.6637 27.6419 24.4234 28.6631C23.3479 33.4846 20.9543 37.9125 17.5095 41.4533L17.2301 41.7426C13.8098 45.2769 9.41159 47.7088 4.59964 48.7263C3.45504 48.9503 2.4088 49.5258 1.60662 50.3724C0.602266 51.4636 0.0620774 52.9028 0.100556 54.3853C0.139035 55.8678 0.753139 57.2771 1.81275 58.3147C2.87236 59.3523 4.29427 59.9366 5.77725 59.9439C7.26024 59.9512 8.68781 59.3809 9.75759 58.3538C10.5019 57.6145 11.0238 56.6813 11.2641 55.6601C12.3316 50.8291 14.722 46.3902 18.168 42.84L18.5471 42.4509C22.1062 39.0083 26.5513 36.6217 31.3871 35.557C32.4112 35.3112 33.3471 34.7862 34.0908 34.0405C34.8351 33.3012 35.357 32.368 35.5973 31.3468C36.6747 26.5261 39.0681 22.0987 42.5112 18.5567L42.8903 18.1776C46.431 14.7328 50.8589 12.3392 55.6804 11.2637C56.6902 11.0219 57.6148 10.5091 58.3548 9.78066C59.0947 9.05223 59.6218 8.13573 59.8795 7.12988C60.1371 6.12403 60.1154 5.06695 59.8167 4.07252C59.5181 3.07808 58.9537 2.18398 58.1846 1.48651H58.1347Z" fill="#F8F8F8"/>
<path d="M58.1342 25.7799C57.0593 24.8168 55.6619 24.2925 54.2188 24.311C52.7757 24.3295 51.3922 24.8894 50.3423 25.8797C49.4994 26.6847 48.9246 27.7297 48.6962 28.8727C47.6891 33.6886 45.2556 38.0897 41.7125 41.5033L41.5329 41.6928C38.111 45.2252 33.7135 47.6567 28.9024 48.6765C27.7578 48.9006 26.7115 49.476 25.9094 50.3227C24.905 51.4138 24.3648 52.8531 24.4033 54.3356C24.4418 55.8181 25.0559 57.2274 26.1155 58.2649C27.1751 59.3025 28.597 59.8868 30.08 59.8941C31.563 59.9014 32.9905 59.3311 34.0603 58.3041C34.8046 57.5648 35.3265 56.6315 35.5668 55.6104C36.6401 50.7982 39.0264 46.3778 42.4607 42.8401L42.8398 42.461C46.3806 39.0163 50.8085 36.6227 55.63 35.5472C56.6397 35.3053 57.5644 34.7926 58.3043 34.0641C59.0442 33.3357 59.5714 32.4192 59.829 31.4133C60.0866 30.4075 60.0649 29.3504 59.7663 28.356C59.4676 27.3616 58.9033 26.4674 58.1342 25.77V25.7799Z" fill="#738ADA"/>
</g>
<defs>
<clipPath id="clip0_982_167">
<rect width="60" height="60" fill="white"/>
</clipPath>
</defs>
</svg>
