<svg width="60" height="60" viewBox="0 0 60 60" fill="none" xmlns="http://www.w3.org/2000/svg">
<g clip-path="url(#clip0_982_173)">
<path d="M29.9949 11.4194C33.1483 11.4194 35.7046 8.86312 35.7046 5.70972C35.7046 2.55633 33.1483 0 29.9949 0C26.8415 0 24.2852 2.55633 24.2852 5.70972C24.2852 8.86312 26.8415 11.4194 29.9949 11.4194Z" fill="#738ADA"/>
<path d="M35.7149 54.2998C35.7149 55.4367 35.3777 56.548 34.7461 57.4932C34.1145 58.4385 33.2168 59.1752 32.1665 59.6103C31.1162 60.0454 29.9604 60.1592 28.8454 59.9374C27.7304 59.7156 26.7062 59.1682 25.9023 58.3643C25.0984 57.5604 24.551 56.5362 24.3292 55.4212C24.1074 54.3062 24.2212 53.1504 24.6563 52.1001C25.0913 51.0498 25.8281 50.1521 26.7734 49.5205C27.7186 48.8889 28.8299 48.5518 29.9668 48.5518C31.4913 48.5518 32.9533 49.1573 34.0313 50.2353C35.1092 51.3133 35.7149 52.7753 35.7149 54.2998Z" fill="#738ADA"/>
<path d="M5.70972 35.7051C8.86312 35.7051 11.4194 33.1488 11.4194 29.9954C11.4194 26.842 8.86312 24.2856 5.70972 24.2856C2.55633 24.2856 0 26.842 0 29.9954C0 33.1488 2.55633 35.7051 5.70972 35.7051Z" fill="#738ADA"/>
<path d="M54.2898 35.7051C57.4432 35.7051 59.9995 33.1488 59.9995 29.9954C59.9995 26.842 57.4432 24.2856 54.2898 24.2856C51.1364 24.2856 48.5801 26.842 48.5801 29.9954C48.5801 33.1488 51.1364 35.7051 54.2898 35.7051Z" fill="#738ADA"/>
<path d="M46.5307 45.5437L38.7325 37.7456C37.7451 36.7316 36.9678 35.5325 36.445 34.2173C35.9222 32.9021 35.6642 31.4966 35.686 30.0815V30.0049C35.6627 28.5895 35.9199 27.1836 36.4428 25.8681C36.9656 24.5527 37.7438 23.3539 38.7325 22.3408L46.5307 14.4468C47.5444 13.4603 48.7438 12.6848 50.0593 12.1651C51.3749 11.6455 52.7805 11.392 54.1947 11.4195C54.9677 11.4253 55.7337 11.2727 56.4454 10.9712C57.1572 10.6697 57.7997 10.2256 58.3333 9.66636C59.1917 8.55223 59.6118 7.16204 59.5142 5.75898C59.4165 4.35592 58.8078 3.03736 57.8033 2.05293C56.7988 1.06849 55.4682 0.486512 54.0634 0.417154C52.6587 0.347797 51.2772 0.795892 50.1807 1.67659C49.6429 2.21193 49.2182 2.84992 48.9318 3.55265C48.6455 4.25538 48.5033 5.0085 48.5137 5.76727C48.5408 7.1831 48.2853 8.59013 47.7623 9.90607C47.2392 11.222 46.459 12.4205 45.4673 13.4313L37.6691 21.2295C36.6563 22.2186 35.4575 22.9971 34.1421 23.52C32.8266 24.0429 31.4204 24.2999 30.005 24.276H29.9284C28.5128 24.3015 27.1062 24.0452 25.7905 23.5222C24.4748 22.9992 23.2762 22.2199 22.2643 21.2295L14.447 13.4122C13.4609 12.3982 12.6857 11.1987 12.166 9.88322C11.6464 8.56772 11.3928 7.16227 11.4197 5.74812C11.4253 4.97658 11.2726 4.2121 10.971 3.50191C10.6695 2.79172 10.2255 2.15091 9.66652 1.61909C8.55239 0.760703 7.16221 0.340592 5.75915 0.438277C4.35609 0.535963 3.03753 1.14467 2.0531 2.14917C1.06867 3.15367 0.486702 4.48423 0.417345 5.88898C0.347987 7.29372 0.796053 8.67516 1.67675 9.77174C2.21355 10.3103 2.85317 10.7354 3.55756 11.0217C4.26195 11.3081 5.01672 11.4499 5.77702 11.4387C7.19292 11.4111 8.6001 11.6663 9.91611 12.1894C11.2321 12.7125 12.4305 13.493 13.4411 14.4851L21.2393 22.2833C22.2266 23.2969 23.0034 24.496 23.5246 25.8115C24.0459 27.1269 24.3013 28.5326 24.2761 29.9474V30.024C24.2997 31.4386 24.0436 32.8438 23.5224 34.159C23.0012 35.4743 22.2253 36.6736 21.2393 37.6881L13.4219 45.5054C12.4062 46.4885 11.2062 47.2611 9.891 47.779C8.57575 48.2969 7.17115 48.5498 5.75787 48.5231C4.61458 48.5119 3.49391 48.8418 2.53912 49.4708C1.58433 50.0997 0.838803 50.9991 0.397844 52.054C-0.0431146 53.1089 -0.159484 54.2713 0.0636466 55.3927C0.286777 56.514 0.839274 57.5434 1.65046 58.3491C2.46165 59.1548 3.49468 59.7003 4.61751 59.9159C5.74035 60.1314 6.90197 60.0072 7.95385 59.5591C9.00572 59.1111 9.90009 58.3595 10.5226 57.4005C11.1451 56.4414 11.4674 55.3186 11.4484 54.1754C11.4214 52.7595 11.6768 51.3525 12.1999 50.0366C12.723 48.7206 13.5032 47.5222 14.4949 46.5113L22.2931 38.7131C23.3049 37.7228 24.5035 36.9434 25.8192 36.4204C27.1349 35.8974 28.5415 35.6412 29.9571 35.6667H30.0338C31.4492 35.6428 32.8553 35.8997 34.1708 36.4227C35.4863 36.9456 36.6851 37.7241 37.6979 38.7131L45.5152 46.5305C46.4986 47.5464 47.2722 48.7461 47.7917 50.0612C48.3111 51.3763 48.5662 52.7808 48.5424 54.1945C48.5371 54.9666 48.689 55.7316 48.9887 56.4431C49.2885 57.1546 49.7299 57.7977 50.286 58.3331C50.9564 59.0129 51.7856 59.515 52.6986 59.794C53.6117 60.0731 54.5799 60.1203 55.5158 59.9314C56.4516 59.7425 57.3258 59.3235 58.0591 58.7122C58.7925 58.1009 59.362 57.3165 59.7163 56.4299C60.0706 55.5434 60.1985 54.5825 60.0884 53.6341C59.9783 52.6858 59.6336 51.7797 59.0857 50.9979C58.5377 50.2161 57.8037 49.583 56.9497 49.156C56.0958 48.7289 55.149 48.5213 54.1947 48.5519C52.7812 48.5867 51.375 48.3385 50.0589 47.8219C48.7427 47.3053 47.5431 46.5307 46.5307 45.5437Z" fill="white"/>
</g>
<defs>
<clipPath id="clip0_982_173">
<rect width="60" height="60" fill="white"/>
</clipPath>
</defs>
</svg>
